<?xml version="1.0" encoding="UTF-8" standalone="no"?>
<!-- Created with Inkscape (http://www.inkscape.org/) -->

<svg
   width="297mm"
   height="210mm"
   viewBox="0 0 297 210"
   version="1.1"
   id="svg1"
   xml:space="preserve"
   inkscape:version="1.3.2 (091e20ef0f, 2023-11-25)"
   sodipodi:docname="logo.svg"
   xmlns:inkscape="http://www.inkscape.org/namespaces/inkscape"
   xmlns:sodipodi="http://sodipodi.sourceforge.net/DTD/sodipodi-0.dtd"
   xmlns="http://www.w3.org/2000/svg"
   xmlns:svg="http://www.w3.org/2000/svg"><sodipodi:namedview
     id="namedview1"
     pagecolor="#ffffff"
     bordercolor="#000000"
     borderopacity="0.25"
     inkscape:showpageshadow="2"
     inkscape:pageopacity="0.0"
     inkscape:pagecheckerboard="0"
     inkscape:deskcolor="#d1d1d1"
     inkscape:document-units="mm"
     showguides="false"
     inkscape:zoom="1"
     inkscape:cx="607.5"
     inkscape:cy="538.5"
     inkscape:window-width="3412"
     inkscape:window-height="2116"
     inkscape:window-x="0"
     inkscape:window-y="0"
     inkscape:window-maximized="1"
     inkscape:current-layer="g19" /><defs
     id="defs1" /><g
     inkscape:label="Layer 1"
     inkscape:groupmode="layer"
     id="layer1"><g
       id="g19"
       transform="translate(16.783039,12.502868)"
       style="fill:#916f6f"
       inkscape:export-filename="g19.png"
       inkscape:export-xdpi="96"
       inkscape:export-ydpi="96"><text
         xml:space="preserve"
         style="font-style:normal;font-variant:normal;font-weight:normal;font-stretch:normal;font-size:44.1681px;font-family:DaytonaW01-Light;-inkscape-font-specification:'DaytonaW01-Light, Normal';font-variant-ligatures:normal;font-variant-caps:normal;font-variant-numeric:normal;font-variant-east-asian:normal;text-align:center;text-anchor:middle;fill:#916f6f;fill-rule:evenodd;stroke-width:1.73516;-inkscape-stroke:none"
         x="129.37057"
         y="181.69028"
         id="text1-6"
         transform="scale(1.0397647,0.96175606)"
         inkscape:export-filename="logo.png"
         inkscape:export-xdpi="96"
         inkscape:export-ydpi="96"><tspan
           sodipodi:role="line"
           id="tspan1-6"
           x="129.37057"
           y="181.69028"
           style="font-style:normal;font-variant:normal;font-weight:normal;font-stretch:normal;font-size:44.1681px;font-family:DaytonaW01-Light;-inkscape-font-specification:'DaytonaW01-Light, Normal';font-variant-ligatures:normal;font-variant-caps:normal;font-variant-numeric:normal;font-variant-east-asian:normal;fill:#916f6f;stroke-width:1.73518">ROBOCRAFT</tspan></text><path
         id="path1"
         style="fill:#916f6f;stroke-width:0.714822"
         d="m 131.83333,1.2353776 c -10.43034,0 -10.34185,-0.00796 -11.50614,1.0979594 -0.99412,0.9442797 -1.09994,1.3898878 -1.91052,8.050486 l -0.77985,6.405972 -1.41244,0.409614 c -2.65312,0.769243 -5.94929,2.083696 -8.84608,3.527767 l -2.89517,1.443344 -4.991105,-3.920415 c -2.745291,-2.156219 -5.263911,-4.015759 -5.597051,-4.131889 -0.922767,-0.321679 -2.235367,-0.252495 -3.090281,0.162392 -1.07505,0.521721 -13.980833,13.465568 -14.377685,14.420102 -0.365772,0.879784 -0.374962,2.175435 -0.02181,3.009086 0.148591,0.350774 1.148312,1.752682 2.221972,3.115731 1.073659,1.363047 2.819232,3.582037 3.879212,4.930513 l 1.927487,2.451624 -1.454249,2.920013 c -1.434602,2.880252 -2.64161,5.91395 -3.455662,8.686115 -0.229096,0.780162 -0.437918,1.444984 -0.464147,1.477276 -0.07111,0.08752 -1.909829,0.330053 -7.369413,0.971924 -2.704559,0.317969 -5.141403,0.624995 -5.415266,0.682286 -0.729639,0.15264 -2.05433,1.365344 -2.455258,2.248027 -0.323637,0.712522 -0.348726,1.446718 -0.350837,10.318512 l -0.0025,9.550788 0.447183,0.960411 c 0.463657,0.995734 1.046712,1.575924 1.952936,1.943849 0.290317,0.117866 3.166157,0.547814 6.390823,0.954956 l 5.863052,0.739849 53.453989,0.01758 53.45461,0.01697 6.12179,-0.76227 c 6.62858,-0.825678 7.34468,-1.013368 8.18137,-2.141384 0.85359,-1.150738 0.8724,-1.395672 0.86771,-11.356482 -0.003,-8.758303 -0.0306,-9.532607 -0.34902,-10.231861 -0.42049,-0.923263 -1.68027,-2.095642 -2.41526,-2.247422 -0.29775,-0.06149 -3.05195,-0.41213 -6.12058,-0.77863 -3.06865,-0.3665 -5.83844,-0.708207 -6.15512,-0.759847 -0.50405,-0.08219 -0.60466,-0.205996 -0.8065,-0.991313 -0.54755,-2.130347 -2.30322,-6.601423 -3.65441,-9.307201 l -1.46092,-2.926073 1.97233,-2.51161 c 6.4799,-8.253393 6.32572,-8.020537 6.31751,-9.585328 -0.002,-0.426569 -0.16362,-1.115723 -0.35872,-1.53181 -0.49422,-1.054051 -13.46577,-13.96897 -14.4304,-14.367386 -0.84979,-0.350985 -2.39537,-0.377742 -3.11089,-0.05393 -0.28732,0.130027 -2.75526,1.98896 -5.48373,4.131283 l -4.96082,3.895573 -2.89455,-1.442738 c -2.99221,-1.491486 -5.62723,-2.546081 -8.56493,-3.427185 l -1.69906,-0.509593 -0.79015,-6.43021 C 144.75581,6.4629622 144.3331,3.7159709 144.16107,3.3864667 143.76523,2.6283254 142.92979,1.8760289 142.09966,1.5292678 141.49542,1.2768175 140.05117,1.2353891 131.83326,1.2353891 Z M 104.50555,43.401967 c 1.14977,5.32e-4 2.29996,0.08572 2.5316,0.2551 0.23883,0.174636 0.39254,0.695992 0.53506,1.812359 0.14693,1.150941 0.28121,1.594497 0.50474,1.668146 0.16745,0.05517 0.84602,0.345404 1.50757,0.645323 l 1.20279,0.545344 1.18823,-0.945261 c 0.68928,-0.548477 1.38063,-0.945264 1.64696,-0.945264 0.32811,0 0.92726,0.478615 2.10077,1.677842 0.90301,0.922798 1.64209,1.812043 1.64209,1.975962 0,0.163919 -0.43332,0.87042 -0.96283,1.569984 l -0.96284,1.271863 0.38902,0.865885 c 0.21393,0.476187 0.50991,1.172653 0.65804,1.54817 0.26672,0.676121 0.2828,0.683974 1.65542,0.819228 2.14786,0.211641 2.0602,0.08244 2.0602,3.020599 0,1.867089 -0.0656,2.57794 -0.25146,2.732173 -0.20857,0.173086 -2.32048,0.577514 -3.08544,0.590788 -0.11875,0.0021 -0.26968,0.21881 -0.3357,0.481721 -0.0661,0.262909 -0.34053,0.943543 -0.61018,1.513026 l -0.49019,1.035546 0.96768,1.253686 c 0.53238,0.689633 0.96828,1.38706 0.96828,1.549382 0,0.336202 -3.40703,3.815589 -3.73621,3.815589 -0.11852,0 -0.79306,-0.436776 -1.49849,-0.970712 -1.2206,-0.923881 -1.30973,-0.959522 -1.85355,-0.736214 -0.3143,0.129057 -1.00876,0.404328 -1.54272,0.611391 l -0.97072,0.376287 -0.19146,1.498484 c -0.10518,0.824079 -0.29581,1.623919 -0.42355,1.777821 -0.18296,0.220451 -0.74775,0.279943 -2.6631,0.279943 -2.8738,0 -2.89118,-0.01242 -3.10119,-2.201977 l -0.12967,-1.350635 -0.97556,-0.378105 c -0.53669,-0.208062 -1.241349,-0.487003 -1.565747,-0.619874 -0.565371,-0.231573 -0.636654,-0.204877 -1.714192,0.641687 -0.658869,0.517641 -1.319977,0.882852 -1.597863,0.882852 -0.347053,0 -0.914109,-0.44968 -2.115928,-1.677841 -0.903012,-0.922799 -1.64209,-1.810935 -1.64209,-1.974145 0,-0.163211 0.434446,-0.863483 0.965252,-1.556048 l 0.965265,-1.259138 -0.587161,-1.273076 c -0.322771,-0.700249 -0.586549,-1.373116 -0.586549,-1.494846 0,-0.121731 -0.06379,-0.224062 -0.141787,-0.227228 -0.915841,-0.03771 -2.994016,-0.41702 -3.193898,-0.582911 -0.194544,-0.161459 -0.258129,-0.836134 -0.258129,-2.737626 0,-2.938157 -0.08764,-2.808958 2.060186,-3.020599 1.372634,-0.135254 1.388699,-0.143107 1.655421,-0.819228 0.148142,-0.375517 0.445949,-1.076539 0.662298,-1.557865 l 0.393253,-0.874974 -0.967082,-1.23066 c -0.531896,-0.676834 -0.967069,-1.379386 -0.967069,-1.560894 0,-0.18151 0.739078,-1.084673 1.64209,-2.007471 1.281079,-1.309158 1.756491,-1.677842 2.163792,-1.677842 0.287109,0 0.5667,0.07289 0.621693,0.161787 0.05496,0.08889 0.564178,0.519254 1.131286,0.956774 l 1.030712,0.795596 0.808918,-0.412644 c 0.444623,-0.22683 1.110379,-0.516857 1.479699,-0.644718 0.66809,-0.2313 0.67242,-0.240386 0.89618,-1.814782 0.15643,-1.100647 0.32642,-1.656141 0.55747,-1.825084 0.23135,-0.169172 1.38064,-0.253209 2.53039,-0.252676 z m 54.66224,6.06e-4 c 1.14895,0.002 2.2996,0.08752 2.52797,0.254494 0.23884,0.174636 0.39253,0.695992 0.53504,1.812359 0.14693,1.150941 0.28123,1.594497 0.50476,1.668146 0.16745,0.05517 0.84827,0.346935 1.51302,0.648353 l 1.20884,0.547767 1.0192,-0.786506 c 0.5607,-0.432587 1.06477,-0.858795 1.11977,-0.947685 0.055,-0.08889 0.32384,-0.161787 0.59744,-0.161787 0.37345,0 0.9128,0.415318 2.1638,1.666328 0.91653,0.916514 1.66634,1.80576 1.66634,1.975963 0,0.170203 -0.43333,0.881933 -0.96283,1.581497 l -0.96284,1.271863 0.38901,0.865885 c 0.21393,0.476187 0.50991,1.172653 0.65805,1.54817 0.26673,0.676121 0.28341,0.683974 1.65603,0.819228 2.14785,0.211641 2.05958,0.08244 2.05958,3.020599 0,1.894741 -0.0642,2.577009 -0.25692,2.73702 -0.14122,0.117209 -0.94378,0.309675 -1.78327,0.428397 -1.36605,0.193183 -1.53788,0.263374 -1.63907,0.666531 -0.0622,0.247763 -0.33386,0.916277 -0.60351,1.48576 l -0.4902,1.035546 0.96768,1.253686 c 0.53239,0.689633 0.96829,1.38706 0.96829,1.549382 0,0.336202 -3.40703,3.815589 -3.73621,3.815589 -0.11852,0 -0.79305,-0.436776 -1.49848,-0.970712 -1.22062,-0.923881 -1.30974,-0.959522 -1.85357,-0.736214 -0.31428,0.129057 -1.00875,0.404328 -1.54271,0.611391 l -0.97071,0.376287 -0.19149,1.498484 c -0.10518,0.824079 -0.29521,1.623919 -0.42294,1.777821 h -6.1e-4 c -0.31753,0.382593 -4.94874,0.410365 -5.26317,0.03151 -0.1135,-0.136771 -0.31512,-0.951514 -0.4484,-1.81054 l -0.24236,-1.562108 -0.94587,-0.340537 c -0.52012,-0.187517 -1.20722,-0.450064 -1.52697,-0.582912 -0.55586,-0.230933 -0.63051,-0.202562 -1.70208,0.638658 -1.59001,1.248223 -1.76994,1.209485 -3.73439,-0.79802 -0.90301,-0.922798 -1.64209,-1.805101 -1.64209,-1.960814 0,-0.155713 0.43704,-0.848397 0.97071,-1.539686 l 0.97011,-1.257321 -0.49748,-1.10826 c -0.2736,-0.609697 -0.49932,-1.183273 -0.5005,-1.274286 -0.008,-0.458262 -0.43229,-0.654528 -1.78389,-0.825894 -0.81447,-0.103265 -1.59688,-0.284261 -1.73842,-0.401736 -0.38134,-0.316515 -0.36661,-4.948075 0.017,-5.331644 0.16051,-0.160513 0.87274,-0.330303 1.71905,-0.409615 1.44498,-0.135405 1.44548,-0.135079 1.71843,-0.826498 0.15016,-0.380327 0.44985,-1.086123 0.66654,-1.568167 l 0.39387,-0.876186 -0.96769,-1.262774 c -0.53224,-0.694416 -0.96769,-1.401461 -0.96769,-1.571195 0,-0.482818 3.27698,-3.640474 3.77803,-3.640474 0.23309,0 0.95452,0.422338 1.60331,0.938597 l 1.17976,0.938597 1.45849,-0.63381 c 0.80201,-0.348645 1.48846,-0.66469 1.52575,-0.702281 0.0373,-0.03759 0.16126,-0.749327 0.2757,-1.581497 0.13889,-1.010309 0.31346,-1.591482 0.52534,-1.749342 0.22306,-0.166202 1.37055,-0.247409 2.5195,-0.245405 z m -54.69436,8.006253 c -0.40856,7.28e-4 -0.81655,0.03721 -1.21974,0.111487 -3.417596,0.629717 -5.898056,3.110173 -6.527779,6.527766 -0.670562,3.639352 1.749514,7.555584 5.408009,8.75095 0.48009,0.156863 1.46333,0.229585 2.654,0.196928 2.38763,-0.06547 3.58505,-0.564892 5.1747,-2.158955 2.52228,-2.529248 3.09707,-5.881397 1.54999,-9.039376 -1.30101,-2.655675 -4.17915,-4.393899 -7.03918,-4.388806 z m 54.41382,0.0037 c -3.56916,0.136826 -6.87519,2.944016 -7.47788,6.651377 -0.5954,3.662408 1.80444,7.57944 5.34316,8.721258 0.50936,0.16436 1.49659,0.243512 2.69945,0.21632 1.70934,-0.03865 2.01901,-0.103202 3.13755,-0.654411 3.09682,-1.526133 4.94834,-5.06324 4.35002,-8.310435 -0.6387,-3.466329 -3.04812,-5.875852 -6.51383,-6.514434 -0.5135,-0.09462 -1.0286,-0.129222 -1.53847,-0.10967 z m 79.87225,9.544122 c -0.32598,2.16e-4 -0.65749,0.0217 -0.99372,0.06605 -2.46542,0.325141 -4.89434,2.327781 -5.71582,4.712377 -0.22615,0.6565 -0.44494,1.234671 -0.48657,1.284586 -0.0413,0.05008 -3.05193,-0.131515 -6.69016,-0.404159 -3.63819,-0.272649 -9.60197,-0.718518 -13.25246,-0.990707 h -6.1e-4 c -3.65047,-0.272182 -6.63941,-0.49249 -6.6441,-0.488386 -0.003,0.0038 -0.004,1.370364 -0.002,3.036352 l 0.004,3.029082 8.0511,-0.586547 c 4.42811,-0.322454 10.12161,-0.745742 12.65257,-0.941022 2.53096,-0.195267 4.88131,-0.361277 5.22259,-0.369015 l 0.62047,-0.01395 0.39629,1.107047 c 0.57974,1.620575 1.37298,2.733821 2.54918,3.575638 2.02536,1.449552 4.42417,1.825511 6.68834,1.048878 1.23032,-0.422007 1.42635,-0.553802 2.66794,-1.795392 1.24374,-1.243737 1.37268,-1.435532 1.79175,-2.667338 1.63475,-4.805032 -1.96942,-9.606739 -6.8592,-9.603504 z m -214.104404,0.003 c -0.718284,0.01995 -1.439284,0.14995 -2.146837,0.392647 -1.230319,0.422008 -1.426354,0.553803 -2.667942,1.795394 -1.243747,1.243736 -1.372685,1.436138 -1.791758,2.667942 -1.743726,5.125369 2.47306,10.246375 7.852951,9.536853 2.465412,-0.325142 4.894338,-2.327781 5.715808,-4.712377 0.226153,-0.6565 0.444943,-1.234671 0.486569,-1.284588 0.04139,-0.05008 3.051927,0.132121 6.690157,0.404766 3.638206,0.27265 9.601977,0.718519 13.25246,0.990708 h 6.06e-4 c 3.650483,0.272182 6.639415,0.491884 6.644105,0.48778 0.0036,-0.0038 0.0048,-1.370364 0.0025,-3.036353 l -0.0048,-3.029082 -8.051093,0.586547 C 46.20971,66.08234 40.51621,66.506234 37.98524,66.701512 c -2.530958,0.195269 -4.881291,0.361278 -5.222575,0.369016 l -0.620481,0.01394 -0.396283,-1.107654 C 31.166162,64.356246 30.372319,63.243 29.196113,62.401182 27.80367,61.404615 26.235443,60.915756 24.655216,60.959656 Z M 163.22939,88.98305 162.9458,89.40963 c -5.30399,7.973891 -12.86587,13.47351 -21.6556,15.75014 -3.93277,1.01864 -4.9215,1.13734 -9.45625,1.13734 -4.33324,0 -5.45078,-0.12128 -8.82185,-0.96041 -8.63677,-2.14987 -16.21969,-7.349628 -21.28476,-14.595221 l -1.22279,-1.749341 h -8.395876 -8.395266 l 0.349626,0.803473 c 0.979896,2.252947 1.816652,3.958178 2.695209,5.493437 0.801109,1.399917 0.934687,1.758653 0.75924,2.039585 -0.117092,0.187497 -2.10244,2.737587 -4.411225,5.666727 -3.339112,4.23633 -4.19733,5.44106 -4.19733,5.8891 0,0.48789 0.870462,1.43403 6.50777,7.07313 5.476054,5.47777 6.59327,6.51018 7.042209,6.51018 0.363013,0 0.975687,-0.34712 1.917184,-1.08705 0.761066,-0.59812 3.310631,-2.60322 5.666129,-4.45545 l 4.28277,-3.36781 1.0828,0.65381 c 3.30303,1.994 8.03656,4.0133 12.19268,5.20137 l 2.50737,0.71682 0.58231,4.71541 c 0.3203,2.59356 0.69505,5.76366 0.83317,7.04463 0.18685,1.73304 0.34419,2.44699 0.61381,2.78974 l 0.36175,0.46051 h 9.23326 c 8.54146,0 9.26331,-0.025 9.64471,-0.33387 0.34784,-0.28166 0.45403,-0.68835 0.68048,-2.60068 0.97057,-8.19633 1.43625,-11.89965 1.5106,-12.01999 0.0469,-0.076 0.53212,-0.2418 1.07857,-0.36902 3.89425,-0.90671 9.81473,-3.34377 13.7257,-5.64976 l 0.9901,-0.58351 4.9596,3.9095 c 2.72783,2.15009 5.2695,4.14879 5.64854,4.44212 1.32776,1.02751 1.09069,1.19842 8.24076,-5.9406 5.93355,-5.92439 6.48413,-6.52762 6.48413,-7.10583 0,-0.53709 -0.62422,-1.42536 -4.1634,-5.92123 -2.29001,-2.90906 -4.26058,-5.444228 -4.3791,-5.634007 -0.17904,-0.28669 -0.0452,-0.643301 0.79257,-2.107445 0.55464,-0.969238 1.45442,-2.747133 1.99898,-3.950717 l 0.9901,-2.188047 -8.35284,-0.0521 z" /></g></g></svg>
