<?xml version="1.0" encoding="UTF-8" standalone="no"?>
<!-- Created with Inkscape (http://www.inkscape.org/) -->

<svg
   width="297mm"
   height="210mm"
   viewBox="0 0 297 210"
   version="1.1"
   id="svg1"
   xml:space="preserve"
   inkscape:version="1.3.2 (091e20ef0f, 2023-11-25)"
   sodipodi:docname="logo.svg"
   inkscape:export-filename="logo.png"
   inkscape:export-xdpi="96"
   inkscape:export-ydpi="96"
   xmlns:inkscape="http://www.inkscape.org/namespaces/inkscape"
   xmlns:sodipodi="http://sodipodi.sourceforge.net/DTD/sodipodi-0.dtd"
   xmlns="http://www.w3.org/2000/svg"
   xmlns:svg="http://www.w3.org/2000/svg"><sodipodi:namedview
     id="namedview1"
     pagecolor="#ffffff"
     bordercolor="#000000"
     borderopacity="0.25"
     inkscape:showpageshadow="2"
     inkscape:pageopacity="0.0"
     inkscape:pagecheckerboard="0"
     inkscape:deskcolor="#d1d1d1"
     inkscape:document-units="mm"
     showguides="false"
     inkscape:zoom="1.4142136"
     inkscape:cx="435.93133"
     inkscape:cy="538.46181"
     inkscape:window-width="3412"
     inkscape:window-height="2116"
     inkscape:window-x="0"
     inkscape:window-y="0"
     inkscape:window-maximized="1"
     inkscape:current-layer="layer1" /><defs
     id="defs1" /><g
     inkscape:label="Layer 1"
     inkscape:groupmode="layer"
     id="layer1"><path
       id="path1"
       style="fill:#916f6f;stroke-width:0.917387"
       d="m 148.60993,3.6175204 c -13.38607,0 -13.27249,-0.010286 -14.76673,1.4090956 -1.27583,1.2118658 -1.41162,1.7837504 -2.45191,10.33181 l -1.00085,8.221281 -1.81268,0.52569 c -3.40496,0.98723 -7.6352,2.674168 -11.35287,4.527458 l -3.7156,1.852355 -6.40547,-5.031374 c -3.52325,-2.767242 -6.75559,-5.153734 -7.183136,-5.302774 -1.184243,-0.412834 -2.868804,-0.324046 -3.965986,0.20841 -1.379706,0.669566 -17.942715,17.281409 -18.452027,18.506438 -0.469425,1.129095 -0.481218,2.791905 -0.028,3.861794 0.190698,0.450176 1.473718,2.249354 2.851623,3.998659 1.377913,1.749305 3.618151,4.597108 4.978509,6.327712 l 2.473689,3.146358 -1.866355,3.74748 c -1.841138,3.696451 -3.390188,7.589832 -4.434922,11.147566 -0.294009,1.001243 -0.562017,1.854462 -0.595667,1.895903 -0.09125,0.112324 -2.451038,0.423584 -9.457747,1.247347 -3.470971,0.408074 -6.598362,0.802104 -6.949831,0.875629 -0.936402,0.195897 -2.636482,1.752254 -3.151022,2.885069 -0.41535,0.914434 -0.447548,1.856684 -0.450258,13.242548 l -0.0032,12.257225 0.573905,1.23257 c 0.595048,1.2779 1.343328,2.0225 2.506355,2.49469 0.372585,0.15127 4.063374,0.70305 8.201839,1.22556 l 7.52451,0.94951 68.601671,0.0226 68.60246,0.0218 7.85658,-0.97828 c 8.50697,-1.05965 9.42598,-1.30053 10.49978,-2.74821 1.09547,-1.47682 1.11962,-1.79116 1.11361,-14.5746 -0.004,-11.240211 -0.0393,-12.233936 -0.44793,-13.131341 -0.53966,-1.184898 -2.15642,-2.689502 -3.0997,-2.884293 -0.38211,-0.07892 -3.9168,-0.528918 -7.855,-0.999277 -3.93826,-0.470356 -7.49293,-0.908896 -7.89936,-0.97517 -0.64688,-0.105481 -0.776,-0.264371 -1.03503,-1.272229 -0.70272,-2.734038 -2.9559,-8.47212 -4.69,-11.944653 l -1.87491,-3.755259 2.53125,-3.223342 c 8.31615,-10.592222 8.11828,-10.29338 8.10776,-12.301597 -0.002,-0.547449 -0.21,-1.431893 -0.46039,-1.965891 -0.63426,-1.352746 -17.28167,-17.927464 -18.51965,-18.438782 -1.09061,-0.450447 -3.07417,-0.484787 -3.99245,-0.06922 -0.36874,0.166874 -3.53604,2.552586 -7.0377,5.301997 l -6.3666,4.99949 -3.7148,-1.851577 c -3.84014,-1.91414 -7.22185,-3.267583 -10.99204,-4.398373 l -2.18054,-0.653999 -1.01406,-8.25239 C 165.19431,10.326466 164.65183,6.8010421 164.43104,6.378163 163.92303,5.4051816 162.85085,4.4397024 161.78548,3.994677 161.01,3.6706872 159.15648,3.6175194 148.60981,3.6175194 Z m -29.6389,54.1156546 c 1.47558,6.82e-4 2.95171,0.110003 3.249,0.32739 0.30652,0.224125 0.50377,0.893221 0.68669,2.325941 0.18858,1.477093 0.36089,2.046342 0.64776,2.140862 0.21491,0.07081 1.08577,0.443284 1.93479,0.828193 l 1.54362,0.699882 1.52496,-1.213126 c 0.88461,-0.703904 1.77187,-1.213131 2.11368,-1.213131 0.42109,0 1.19002,0.614243 2.69608,2.153305 1.1589,1.184299 2.10741,2.325535 2.10741,2.535905 0,0.210369 -0.55612,1.117078 -1.23566,2.014883 l -1.2357,1.63228 0.49926,1.111259 c 0.27458,0.611124 0.65441,1.504955 0.84451,1.986886 0.34231,0.867718 0.36294,0.877797 2.12454,1.051378 2.75652,0.271616 2.64401,0.105804 2.64401,3.87657 0,2.396179 -0.0841,3.30847 -0.32272,3.50641 -0.26768,0.222134 -2.97804,0.741169 -3.9598,0.758205 -0.15238,0.0027 -0.34609,0.280815 -0.43082,0.61823 -0.0849,0.33741 -0.43702,1.210922 -0.78309,1.941783 l -0.62908,1.328996 1.24188,1.608955 c 0.68326,0.885058 1.24267,1.780119 1.24267,1.988441 0,0.431474 -4.37251,4.896815 -4.79497,4.896815 -0.15209,0 -1.01779,-0.560532 -1.92312,-1.245771 -1.56649,-1.185679 -1.68088,-1.231418 -2.37881,-0.944833 -0.40335,0.165625 -1.29462,0.518906 -1.97989,0.784638 l -1.2458,0.482915 -0.24571,1.923109 c -0.13499,1.057598 -0.37964,2.084092 -0.54358,2.281611 -0.23482,0.282917 -0.95965,0.35927 -3.41776,0.35927 -3.68818,0 -3.71049,-0.01589 -3.98,-2.825955 l -0.16642,-1.733367 -1.25202,-0.485259 c -0.68876,-0.267007 -1.59311,-0.625005 -2.00944,-0.795513 -0.72559,-0.297196 -0.81706,-0.262941 -2.19995,0.823522 -0.84557,0.664311 -1.69404,1.133015 -2.05066,1.133015 -0.4454,0 -1.17316,-0.577099 -2.71554,-2.153282 -1.1589,-1.184302 -2.1074,-2.324117 -2.1074,-2.533577 0,-0.209461 0.55753,-1.108175 1.23877,-1.996997 l 1.2388,-1.615949 -0.75354,-1.633839 c -0.41425,-0.898683 -0.75278,-1.762225 -0.75278,-1.918451 0,-0.156227 -0.082,-0.287555 -0.18196,-0.29162 -1.17537,-0.0484 -3.842465,-0.535194 -4.098987,-0.748093 -0.249668,-0.207214 -0.331277,-1.073076 -0.331277,-3.513409 0,-3.770766 -0.11243,-3.604954 2.644004,-3.87657 1.7616,-0.173581 1.78223,-0.18366 2.12453,-1.051378 0.19012,-0.481931 0.57233,-1.381607 0.84998,-1.999331 l 0.50469,-1.12292 -1.24113,-1.579403 c -0.68262,-0.868633 -1.2411,-1.770272 -1.2411,-2.003215 0,-0.232947 0.9485,-1.392045 2.1074,-2.576344 1.64412,-1.680144 2.25424,-2.153305 2.77697,-2.153305 0.36847,0 0.72729,0.09355 0.79787,0.207633 0.0707,0.114082 0.72405,0.6664 1.45185,1.227903 l 1.32281,1.02105 1.03814,-0.529579 c 0.57061,-0.291108 1.42504,-0.663322 1.89901,-0.827415 0.85741,-0.296846 0.86298,-0.308507 1.15014,-2.329051 0.20076,-1.412546 0.41893,-2.125455 0.71545,-2.342273 0.2969,-0.217111 1.77188,-0.324964 3.24744,-0.324279 z m 59.28637,7.78e-4 c 1.47454,0.0026 2.95127,0.112324 3.24435,0.326612 0.30652,0.224125 0.50377,0.893221 0.68666,2.325941 0.18856,1.477093 0.36092,2.046342 0.6478,2.140862 0.21489,0.07081 1.08864,0.445249 1.94178,0.832081 l 1.5514,0.702993 1.30801,-1.009385 c 0.7196,-0.555172 1.3665,-1.102158 1.43709,-1.216238 0.0707,-0.11408 0.41561,-0.207633 0.76674,-0.207633 0.47927,0 1.17146,0.533009 2.77698,2.138528 1.17624,1.176233 2.13854,2.317472 2.13854,2.535907 0,0.218435 -0.55612,1.131853 -1.23569,2.029658 l -1.23568,1.63228 0.49925,1.111259 c 0.27456,0.611126 0.65439,1.504955 0.84452,1.986886 0.34233,0.867718 0.36373,0.877797 2.12532,1.051378 2.7565,0.271616 2.64322,0.105804 2.64322,3.87657 0,2.431668 -0.0824,3.307276 -0.32973,3.51263 -0.18124,0.150423 -1.21121,0.39743 -2.2886,0.549795 -1.75316,0.247928 -1.97369,0.338008 -2.10354,0.855411 -0.0797,0.317974 -0.42849,1.175931 -0.77454,1.906792 l -0.62912,1.328996 1.2419,1.608955 c 0.68326,0.885058 1.24269,1.780119 1.24269,1.988441 0,0.431474 -4.37251,4.896815 -4.79497,4.896815 -0.15211,0 -1.01779,-0.560532 -1.92312,-1.245771 -1.56652,-1.185679 -1.6809,-1.231418 -2.37883,-0.944833 -0.40335,0.165625 -1.29461,0.518906 -1.97988,0.784638 l -1.24579,0.482915 -0.24575,1.923109 c -0.13498,1.057598 -0.37886,2.084092 -0.54278,2.281611 h -8.1e-4 c -0.4075,0.491005 -6.3511,0.526643 -6.75463,0.0404 -0.14565,-0.175532 -0.40442,-1.221149 -0.57547,-2.323594 l -0.31103,-2.004771 -1.21391,-0.437028 c -0.6675,-0.240656 -1.54931,-0.577599 -1.95968,-0.748088 -0.71337,-0.296382 -0.80918,-0.259969 -2.18442,0.819629 -2.04056,1.601936 -2.27149,1.552215 -4.79262,-1.02415 -1.15891,-1.184303 -2.10743,-2.316631 -2.10743,-2.516469 0,-0.199839 0.56089,-1.088815 1.2458,-1.975999 l 1.24502,-1.613617 -0.63846,-1.422315 c -0.35113,-0.782474 -0.64082,-1.518589 -0.64233,-1.635391 -0.01,-0.588124 -0.55479,-0.840008 -2.28941,-1.059935 -1.04528,-0.132528 -2.0494,-0.364814 -2.23105,-0.515579 -0.48941,-0.406207 -0.47051,-6.350248 0.0218,-6.842513 0.206,-0.205998 1.12006,-0.423903 2.2062,-0.525692 1.85445,-0.173774 1.85509,-0.173356 2.20537,-1.060707 0.19272,-0.488104 0.57733,-1.393908 0.85544,-2.012552 l 0.50549,-1.124477 -1.24191,-1.620615 c -0.68309,-0.891199 -1.24193,-1.798603 -1.24193,-2.016437 0,-0.619637 4.20562,-4.672103 4.84865,-4.672103 0.29914,0 1.22501,0.54202 2.05765,1.204574 l 1.51409,1.204574 1.87178,-0.813416 c 1.02929,-0.447444 1.91026,-0.85305 1.95811,-0.901293 0.0479,-0.04824 0.20696,-0.961669 0.35383,-2.029659 0.17824,-1.296607 0.40228,-2.042472 0.67421,-2.245065 0.28627,-0.213301 1.75895,-0.317519 3.23348,-0.314948 z M 117.36441,68.15208 c -4.38605,0.808165 -7.56942,3.991527 -8.3776,8.377588 -0.86059,4.670665 2.24529,9.696668 6.94052,11.230776 0.61614,0.201314 1.87802,0.294644 3.40609,0.252731 3.06423,-0.08402 4.60097,-0.724969 6.6411,-2.770754 3.23704,-3.24598 3.97472,-7.548053 1.98921,-11.600934 -3.02501,-6.248142 -6.32826,-5.502981 -10.59932,-5.489407 z m 50.93601,8.397896 c -0.76411,4.700255 2.31579,9.727286 6.8573,11.192669 0.6537,0.210936 1.92068,0.312519 3.46442,0.27762 2.19372,-0.0496 2.59115,-0.132447 4.02666,-0.839855 3.97438,-1.958606 6.35058,-6.49805 5.58272,-10.665428 -0.8197,-4.44861 -3.91189,-7.540937 -8.35971,-8.36048 -9.13399,-1.68307 -11.15006,5.803777 -11.57139,8.395474 z m 20.60251,39.680904 -0.36394,0.54746 c -6.80703,10.23351 -16.51178,17.29161 -27.79231,20.21337 -5.04725,1.30731 -6.31615,1.45963 -12.13594,1.45963 -5.5612,0 -6.99542,-0.15564 -11.32178,-1.23255 -11.08423,-2.7591 -20.81598,-9.43237 -27.31638,-18.73119 l -1.56931,-2.24506 H 97.628195 86.853884 l 0.448703,1.03115 c 1.257578,2.8914 2.331439,5.07985 3.458978,7.05017 1.02812,1.7966 1.199564,2.25701 0.974392,2.61754 -0.150275,0.24065 -2.698238,3.51337 -5.661285,7.27257 -4.285343,5.4368 -5.386763,6.98293 -5.386763,7.55793 0,0.62615 1.117129,1.8404 8.351938,9.07749 7.027856,7.03005 8.461673,8.35502 9.037832,8.35502 0.465883,0 1.25217,-0.44547 2.460471,-1.3951 0.97674,-0.76761 4.2488,-3.3409 7.27178,-5.71801 l 5.49641,-4.32217 1.38964,0.83908 c 4.23905,2.55906 10.31395,5.15058 15.64781,6.67533 l 3.21792,0.91994 0.74732,6.05165 c 0.41105,3.32851 0.89201,7.39696 1.06927,9.04093 0.23979,2.22414 0.44172,3.14042 0.78775,3.58028 l 0.46427,0.59102 h 11.84974 c 10.96193,0 11.88832,-0.0321 12.3778,-0.4285 0.44643,-0.36146 0.58271,-0.8834 0.87333,-3.33764 1.2456,-10.51899 1.84324,-15.27176 1.93867,-15.42619 0.0603,-0.0975 0.68291,-0.31032 1.38421,-0.47358 4.9978,-1.16366 12.596,-4.29133 17.61526,-7.25079 l 1.27066,-0.74887 6.36504,5.01738 c 3.50084,2.75938 6.76277,5.32445 7.24922,5.7009 1.70402,1.3187 1.39976,1.53803 10.57601,-7.62402 7.61498,-7.60324 8.32159,-8.37741 8.32159,-9.11947 0,-0.68928 -0.80111,-1.82927 -5.34322,-7.59917 -2.93895,-3.73343 -5.46793,-6.987 -5.62004,-7.23056 -0.22977,-0.36793 -0.058,-0.8256 1.01716,-2.70464 0.71182,-1.2439 1.86657,-3.52563 2.56545,-5.07028 l 1.27066,-2.80808 -10.71983,-0.067 z"
       sodipodi:nodetypes="csccccccssssscccsssssccsscccccsccssssccccssscccscsscccsssscccsssccssssscccccsssscccsscccssssscccscsssscccsssscccsssscssscccssssccssssssscccsssscccccssccssssccccssssssccsscccscscccssssscsssssssccssscccccssssssscccccssccssscccccsssssscccc"
       inkscape:export-filename="logo.png"
       inkscape:export-xdpi="96"
       inkscape:export-ydpi="96" /><text
       xml:space="preserve"
       style="font-style:normal;font-variant:normal;font-weight:normal;font-stretch:normal;font-size:57.2551px;font-family:'Square Pixel7';-inkscape-font-specification:'Square Pixel7, Normal';font-variant-ligatures:normal;font-variant-caps:normal;font-variant-numeric:normal;font-variant-east-asian:normal;text-align:center;text-anchor:middle;fill:#916f6f;fill-rule:evenodd;stroke-width:2.24929;-inkscape-stroke:none"
       x="144.35802"
       y="214.80821"
       id="text1-6"
       transform="scale(1.0397647,0.96175606)"
       inkscape:export-filename="logo.png"
       inkscape:export-xdpi="96"
       inkscape:export-ydpi="96"><tspan
         sodipodi:role="line"
         id="tspan1-6"
         x="144.35802"
         y="214.80821"
         style="font-style:normal;font-variant:normal;font-weight:normal;font-stretch:normal;font-size:57.2551px;font-family:'Square Pixel7';-inkscape-font-specification:'Square Pixel7, Normal';font-variant-ligatures:normal;font-variant-caps:normal;font-variant-numeric:normal;font-variant-east-asian:normal;fill:#916f6f;stroke-width:2.24932">ROBOCRAFT</tspan></text></g></svg>
