<?xml version="1.0" encoding="UTF-8" standalone="no"?>
<!-- Created with Inkscape (http://www.inkscape.org/) -->

<svg
   width="297mm"
   height="210mm"
   viewBox="0 0 297 210"
   version="1.1"
   id="svg1"
   xml:space="preserve"
   inkscape:version="1.3.2 (091e20ef0f, 2023-11-25)"
   sodipodi:docname="logo.svg"
   inkscape:export-filename="logo.png"
   inkscape:export-xdpi="96"
   inkscape:export-ydpi="96"
   xmlns:inkscape="http://www.inkscape.org/namespaces/inkscape"
   xmlns:sodipodi="http://sodipodi.sourceforge.net/DTD/sodipodi-0.dtd"
   xmlns="http://www.w3.org/2000/svg"
   xmlns:svg="http://www.w3.org/2000/svg"><sodipodi:namedview
     id="namedview1"
     pagecolor="#ffffff"
     bordercolor="#000000"
     borderopacity="0.25"
     inkscape:showpageshadow="2"
     inkscape:pageopacity="0.0"
     inkscape:pagecheckerboard="0"
     inkscape:deskcolor="#d1d1d1"
     inkscape:document-units="mm"
     showguides="false"
     inkscape:zoom="1.4142136"
     inkscape:cx="435.57777"
     inkscape:cy="538.4618"
     inkscape:window-width="3412"
     inkscape:window-height="2116"
     inkscape:window-x="0"
     inkscape:window-y="0"
     inkscape:window-maximized="1"
     inkscape:current-layer="layer1" /><defs
     id="defs1" /><g
     inkscape:label="Layer 1"
     inkscape:groupmode="layer"
     id="layer1"><path
       id="path1"
       style="fill:#916f6f;stroke-width:0.882284"
       d="m 148.60994,3.7304073 c -12.87386,0 -12.76463,-0.00989 -14.20169,1.355177 -1.22701,1.1654942 -1.3576,1.7154958 -2.35809,9.9364647 l -0.96255,7.906697 -1.74332,0.505575 c -3.27467,0.949454 -7.34304,2.571841 -10.91846,4.354216 l -3.57342,1.781475 -6.16037,-4.83885 c -3.38843,-2.661354 -6.49709,-4.956528 -6.90827,-5.099865 -1.13893,-0.397037 -2.759032,-0.311647 -3.814231,0.200435 -1.326912,0.643945 -17.256143,16.620142 -17.745966,17.798296 -0.451463,1.08589 -0.462805,2.685073 -0.02693,3.714024 0.183401,0.43295 1.417327,2.163283 2.742507,3.845651 1.325187,1.682369 3.479703,4.421201 4.788008,6.085585 l 2.379034,3.025963 -1.79494,3.604084 c -1.770687,3.555008 -3.260463,7.29941 -4.265221,10.721008 -0.282759,0.962931 -0.540511,1.783502 -0.572874,1.823357 -0.08776,0.108026 -2.35725,0.407376 -9.095849,1.199618 -3.338156,0.392459 -6.345878,0.771412 -6.683899,0.842123 -0.900571,0.188402 -2.535598,1.685205 -3.030449,2.774673 -0.399457,0.879444 -0.430423,1.785639 -0.433029,12.735827 l -0.0031,11.788192 0.551944,1.185407 c 0.572279,1.229 1.291926,1.94511 2.41045,2.39923 0.358329,0.14548 3.907891,0.67615 7.887999,1.17866 l 7.236587,0.91318 65.976659,0.0217 65.97741,0.021 7.55595,-0.94085 c 8.18145,-1.0191 9.0653,-1.25076 10.09801,-2.64305 1.05355,-1.42031 1.07678,-1.72262 1.071,-14.016887 -0.004,-10.810109 -0.0378,-11.765809 -0.43079,-12.628875 -0.51901,-1.139558 -2.07391,-2.586589 -2.98109,-2.773927 -0.36749,-0.0759 -3.76693,-0.508679 -7.55444,-0.96104 -3.78756,-0.452358 -7.20621,-0.874117 -7.59709,-0.937855 -0.62213,-0.101445 -0.74631,-0.254255 -0.99542,-1.223548 -0.67584,-2.629421 -2.8428,-8.147937 -4.51054,-11.487595 l -1.80317,-3.611565 2.43439,-3.100002 c 7.99794,-10.186914 7.80764,-9.899507 7.79752,-11.830881 -0.002,-0.526501 -0.20196,-1.377102 -0.44277,-1.890667 -0.60999,-1.300983 -16.62039,-17.241475 -17.811,-17.733228 -1.04888,-0.433211 -2.95654,-0.466237 -3.83968,-0.06657 -0.35463,0.160488 -3.40074,2.454912 -6.76841,5.099118 l -6.12298,4.808186 -3.57266,-1.780727 c -3.6932,-1.840896 -6.94551,-3.14255 -10.57143,-4.230071 l -2.0971,-0.628974 -0.97526,-7.936615 C 164.55972,10.182636 164.038,6.7921126 163.82566,6.3854148 163.33709,5.4496642 162.30593,4.5211287 161.28133,4.0931321 160.53552,3.7815396 158.75293,3.7304063 148.60982,3.7304063 Z M 120.10516,55.775343 c 1.41912,6.56e-4 2.83876,0.105794 3.12468,0.314863 0.29479,0.215549 0.48449,0.859042 0.66041,2.23694 0.18137,1.420572 0.34708,1.968039 0.62298,2.058942 0.20668,0.0681 1.04422,0.426322 1.86075,0.796503 l 1.48456,0.673101 1.4666,-1.166706 c 0.85076,-0.676969 1.70407,-1.166711 2.0328,-1.166711 0.40498,0 1.14449,0.590739 2.59292,2.070909 1.11455,1.138983 2.02677,2.23655 2.02677,2.43887 0,0.202319 -0.53484,1.074333 -1.18838,1.937784 l -1.18841,1.569821 0.48015,1.068738 c 0.26407,0.587739 0.62937,1.447368 0.8122,1.910858 0.32921,0.834515 0.34905,0.844208 2.04324,1.011147 2.65104,0.261223 2.54284,0.101756 2.54284,3.728235 0,2.30449 -0.0809,3.181872 -0.31037,3.372238 -0.25744,0.213634 -2.86409,0.712809 -3.80828,0.729193 -0.14655,0.0026 -0.33285,0.27007 -0.41434,0.594573 -0.0816,0.3245 -0.42029,1.164587 -0.75312,1.867482 l -0.60501,1.278142 1.19436,1.547389 c 0.65712,0.851192 1.19512,1.712004 1.19512,1.912354 0,0.414964 -4.2052,4.70944 -4.61149,4.70944 -0.14627,0 -0.97885,-0.539083 -1.84953,-1.198102 -1.50655,-1.140309 -1.61657,-1.184298 -2.28779,-0.908679 -0.38792,0.159287 -1.24508,0.49905 -1.90413,0.754614 l -1.19813,0.464436 -0.23631,1.849522 c -0.12982,1.01713 -0.36511,2.004345 -0.52278,2.194306 -0.22583,0.272092 -0.92293,0.345523 -3.28698,0.345523 -3.54705,0 -3.56851,-0.01528 -3.82771,-2.717821 l -0.16005,-1.66704 -1.20411,-0.466691 c -0.6624,-0.25679 -1.53215,-0.601089 -1.93255,-0.765073 -0.69782,-0.285824 -0.78579,-0.25288 -2.11577,0.79201 -0.81321,0.638892 -1.62922,1.089661 -1.97219,1.089661 -0.42836,0 -1.12827,-0.555017 -2.61163,-2.070887 -1.11456,-1.138986 -2.02676,-2.235186 -2.02676,-2.436631 0,-0.201446 0.53619,-1.065771 1.19137,-1.920583 l 1.19139,-1.554115 -0.7247,-1.571321 c -0.3984,-0.864295 -0.72398,-1.694794 -0.72398,-1.845042 0,-0.150249 -0.0789,-0.276552 -0.17499,-0.280461 -1.1304,-0.04655 -3.69544,-0.514715 -3.94215,-0.719468 -0.24011,-0.199285 -0.3186,-1.032015 -0.3186,-3.378969 0,-3.626479 -0.10812,-3.467012 2.54284,-3.728235 1.69419,-0.166939 1.71403,-0.176632 2.04323,-1.011147 0.18285,-0.46349 0.55043,-1.32874 0.81746,-1.922827 l 0.48538,-1.079952 -1.19364,-1.518968 c -0.6565,-0.835395 -1.19361,-1.702533 -1.19361,-1.926562 0,-0.224034 0.9122,-1.338779 2.02676,-2.477762 1.58121,-1.615853 2.16798,-2.070909 2.67071,-2.070909 0.35437,0 0.69946,0.08997 0.76734,0.199688 0.068,0.109717 0.69634,0.6409 1.39629,1.180918 l 1.2722,0.981979 0.99841,-0.509314 c 0.54878,-0.279969 1.37051,-0.637941 1.82635,-0.795755 0.8246,-0.285487 0.82996,-0.296702 1.10613,-2.23993 0.19308,-1.358496 0.4029,-2.044125 0.68807,-2.252647 0.28554,-0.208803 1.70408,-0.312529 3.12318,-0.311871 z m 57.0178,7.49e-4 c 1.41811,0.0025 2.83834,0.108026 3.1202,0.314114 0.29479,0.215549 0.4845,0.859042 0.66039,2.23694 0.18134,1.420572 0.34711,1.968039 0.62301,2.058942 0.20667,0.0681 1.04698,0.428212 1.86748,0.800242 l 1.49204,0.676093 1.25795,-0.970761 c 0.69207,-0.533929 1.31422,-1.059984 1.3821,-1.169699 0.068,-0.109715 0.39971,-0.199688 0.73741,-0.199688 0.46093,0 1.12663,0.512613 2.67072,2.056698 1.13123,1.131225 2.05671,2.228795 2.05671,2.438871 0,0.210077 -0.53485,1.088543 -1.18841,1.951994 l -1.1884,1.569821 0.48015,1.068738 c 0.26405,0.587741 0.62935,1.447368 0.8122,1.910858 0.32923,0.834515 0.34981,0.844208 2.044,1.011147 2.65102,0.261223 2.54208,0.101756 2.54208,3.728235 0,2.338621 -0.0793,3.180724 -0.31712,3.37822 -0.1743,0.144667 -1.16486,0.382223 -2.20102,0.528758 -1.68608,0.238441 -1.89817,0.325074 -2.02305,0.822679 -0.0767,0.305806 -0.4121,1.130934 -0.74491,1.833829 l -0.60504,1.278142 1.19438,1.547389 c 0.65711,0.851192 1.19514,1.712004 1.19514,1.912354 0,0.414964 -4.2052,4.70944 -4.6115,4.70944 -0.14629,0 -0.97884,-0.539083 -1.84953,-1.198102 -1.50658,-1.140309 -1.61658,-1.184298 -2.2878,-0.908679 -0.38792,0.159287 -1.24508,0.49905 -1.90412,0.754614 l -1.19813,0.464436 -0.23634,1.849522 c -0.12982,1.01713 -0.36436,2.004345 -0.52201,2.194306 h -7.8e-4 c -0.39191,0.472217 -6.10808,0.506492 -6.49617,0.03885 -0.14007,-0.168815 -0.38894,-1.174422 -0.55345,-2.234682 l -0.29913,-1.928059 -1.16746,-0.420305 c -0.64195,-0.231448 -1.49002,-0.555498 -1.88469,-0.719463 -0.68607,-0.285041 -0.77822,-0.250022 -2.10083,0.788266 -1.96248,1.540639 -2.18458,1.49282 -4.60924,-0.984961 -1.11456,-1.138986 -2.02679,-2.227986 -2.02679,-2.420177 0,-0.192193 0.53943,-1.047152 1.19813,-1.900388 l 1.19738,-1.551873 -0.61403,-1.367891 c -0.33769,-0.752533 -0.61629,-1.46048 -0.61775,-1.572813 -0.01,-0.56562 -0.53356,-0.807865 -2.2018,-1.019377 -1.00529,-0.127457 -1.97098,-0.350854 -2.14568,-0.49585 -0.47069,-0.390664 -0.45251,-6.107258 0.021,-6.580687 0.19812,-0.198116 1.0772,-0.407683 2.12178,-0.505577 1.78349,-0.167124 1.78411,-0.166722 2.12099,-1.020119 0.18534,-0.469427 0.55523,-1.340571 0.8227,-1.935542 l 0.48615,-1.08145 -1.19439,-1.558602 c -0.65695,-0.857098 -1.19441,-1.729781 -1.19441,-1.939279 0,-0.595927 4.0447,-4.493327 4.66312,-4.493327 0.28769,0 1.17814,0.52128 1.97892,1.158482 l 1.45615,1.158481 1.80016,-0.782291 c 0.9899,-0.430323 1.83716,-0.820408 1.88318,-0.866805 0.0461,-0.04639 0.19904,-0.924871 0.34029,-1.951995 0.17142,-1.246993 0.38689,-1.964318 0.64841,-2.159158 0.27532,-0.20514 1.69165,-0.30537 3.10975,-0.302897 z m -58.56294,10.019481 c -4.21822,0.77724 -7.27978,3.838792 -8.05704,8.057022 -0.82766,4.491944 2.15938,9.325629 6.67495,10.801034 0.59256,0.193611 1.80615,0.28337 3.27575,0.243061 2.94698,-0.0808 4.42492,-0.697229 6.38698,-2.664732 3.11318,-3.121774 3.82263,-7.25923 1.9131,-11.157029 -2.90926,-6.009059 -6.08611,-5.292411 -10.19374,-5.279356 z m 48.98696,8.076553 c -0.73487,4.520401 2.22717,9.355075 6.59491,10.764385 0.62868,0.202865 1.84718,0.300561 3.33185,0.266997 2.10978,-0.0477 2.492,-0.127378 3.87258,-0.807718 3.8223,-1.88366 6.10758,-6.249404 5.3691,-10.257319 -0.78833,-4.278385 -3.7622,-7.252386 -8.03983,-8.040569 -8.78448,-1.618668 -10.7234,5.581697 -11.12861,8.074224 z m 19.81416,38.162514 -0.35001,0.52651 c -6.54657,9.84193 -15.87997,16.62995 -26.72885,19.43991 -4.85412,1.25729 -6.07447,1.40378 -11.67156,1.40378 -5.34841,0 -6.72775,-0.14969 -10.88856,-1.18539 -10.6601,-2.65352 -20.01946,-9.07144 -26.27113,-18.01445 l -1.50926,-2.15915 H 99.579001 89.216965 l 0.431533,0.99169 c 1.209458,2.78076 2.242228,4.88547 3.326622,6.7804 0.988779,1.72785 1.153663,2.17065 0.937107,2.51738 -0.144525,0.23144 -2.594991,3.37893 -5.444658,6.99429 -4.121366,5.22876 -5.18064,6.71573 -5.18064,7.26873 0,0.60219 1.074382,1.76998 8.032354,8.73014 6.758937,6.76105 8.13789,8.03532 8.692007,8.03532 0.44805,0 1.20425,-0.42843 2.36632,-1.34172 0.93936,-0.73824 4.08622,-3.21306 6.99352,-5.49921 l 5.2861,-4.15678 1.33646,0.80697 c 4.07685,2.46114 9.91929,4.95349 15.04905,6.4199 l 3.09479,0.88474 0.71873,5.82008 c 0.39532,3.20115 0.85787,7.11392 1.02835,8.69499 0.23062,2.13903 0.42482,3.02025 0.75761,3.44328 l 0.4465,0.5684 h 11.39632 c 10.54247,0 11.43341,-0.0309 11.90416,-0.4121 0.42935,-0.34763 0.56042,-0.8496 0.83992,-3.20993 1.19793,-10.11648 1.77271,-14.68739 1.86448,-14.83591 0.058,-0.0938 0.65678,-0.29845 1.33125,-0.45546 4.80656,-1.11913 12.11402,-4.12712 16.94122,-6.97334 l 1.22203,-0.72021 6.12149,4.82539 c 3.36688,2.65379 6.50399,5.12071 6.97183,5.48276 1.63882,1.26824 1.3462,1.47917 10.17132,-7.33229 7.3236,-7.31231 8.00317,-8.05686 8.00317,-8.77052 0,-0.66291 -0.77046,-1.75927 -5.13876,-7.30839 -2.8265,-3.59057 -5.25871,-6.71965 -5.40499,-6.95389 -0.22098,-0.35385 -0.0558,-0.79401 0.97823,-2.60114 0.68459,-1.19631 1.79515,-3.39073 2.46729,-4.87627 l 1.22204,-2.70063 -10.30964,-0.0644 z"
       sodipodi:nodetypes="csccccccssssscccsssssccsscccccsccssssccccssscccscsscccsssscccsssccssssscccccsssscccsscccssssscccscsssscccsssscccsssscssscccssssccssssssscccsssscccccssccssssccccssssssccsscccscscccssssscsssssssccssscccccssssssscccccssccssscccccsssssscccc"
       inkscape:export-filename="logo.png"
       inkscape:export-xdpi="96"
       inkscape:export-ydpi="96" /><text
       xml:space="preserve"
       style="font-style:normal;font-variant:normal;font-weight:normal;font-stretch:normal;font-size:57.2551px;font-family:'Square Pixel7';-inkscape-font-specification:'Square Pixel7, Normal';font-variant-ligatures:normal;font-variant-caps:normal;font-variant-numeric:normal;font-variant-east-asian:normal;text-align:center;text-anchor:middle;fill:#916f6f;fill-rule:evenodd;stroke-width:2.24929;-inkscape-stroke:none"
       x="144.35802"
       y="214.80821"
       id="text1-6"
       transform="scale(1.0397647,0.96175606)"
       inkscape:export-filename="logo.png"
       inkscape:export-xdpi="96"
       inkscape:export-ydpi="96"><tspan
         sodipodi:role="line"
         id="tspan1-6"
         x="144.35802"
         y="214.80821"
         style="font-style:normal;font-variant:normal;font-weight:normal;font-stretch:normal;font-size:57.2551px;font-family:'Square Pixel7';-inkscape-font-specification:'Square Pixel7, Normal';font-variant-ligatures:normal;font-variant-caps:normal;font-variant-numeric:normal;font-variant-east-asian:normal;fill:#916f6f;stroke-width:2.24932">ROBOCRAFT</tspan></text></g></svg>
