<?xml version="1.0" encoding="UTF-8" standalone="no"?>
<!-- Created with Inkscape (http://www.inkscape.org/) -->

<svg
   width="297mm"
   height="210mm"
   viewBox="0 0 297 210"
   version="1.1"
   id="svg1"
   xml:space="preserve"
   inkscape:version="1.3.2 (091e20ef0f, 2023-11-25)"
   sodipodi:docname="logo.svg"
   xmlns:inkscape="http://www.inkscape.org/namespaces/inkscape"
   xmlns:sodipodi="http://sodipodi.sourceforge.net/DTD/sodipodi-0.dtd"
   xmlns="http://www.w3.org/2000/svg"
   xmlns:svg="http://www.w3.org/2000/svg"><sodipodi:namedview
     id="namedview1"
     pagecolor="#ffffff"
     bordercolor="#000000"
     borderopacity="0.25"
     inkscape:showpageshadow="2"
     inkscape:pageopacity="0.0"
     inkscape:pagecheckerboard="0"
     inkscape:deskcolor="#d1d1d1"
     inkscape:document-units="mm"
     showguides="false"
     inkscape:zoom="0.5"
     inkscape:cx="304"
     inkscape:cy="495"
     inkscape:window-width="1876"
     inkscape:window-height="1036"
     inkscape:window-x="0"
     inkscape:window-y="0"
     inkscape:window-maximized="1"
     inkscape:current-layer="g19" /><defs
     id="defs1" /><g
     inkscape:label="Layer 1"
     inkscape:groupmode="layer"
     id="layer1"><g
       id="g19"
       transform="translate(16.783039,12.502868)"
       style="fill:#916f6f"
       inkscape:export-filename="g19.png"
       inkscape:export-xdpi="96"
       inkscape:export-ydpi="96"><g
         id="g20"
         inkscape:export-filename="logo.png"
         inkscape:export-xdpi="96"
         inkscape:export-ydpi="96"
         transform="matrix(3.1565358,0,0,3.1565358,-122.18831,-267.19396)"><path
           id="path17"
           style="font-size:31.9748px;font-family:DaytonaW01-Light;-inkscape-font-specification:'DaytonaW01-Light, Normal';text-align:center;text-anchor:middle;fill:#916f6f;fill-rule:evenodd;stroke-width:1.25615"
           d="m 111.17616,95.273771 c -2.8351,0 -5.06274,0.820494 -6.6828,2.461865 -1.62005,1.620054 -2.42982,4.327644 -2.42982,8.121984 v 3.16518 c 0,3.70908 0.80977,6.39522 2.42982,8.05791 1.62006,1.64137 3.82677,2.46186 6.61924,2.46186 h 0.22376 c 2.94167,0 5.20097,-0.85266 6.77839,-2.55798 1.59874,-1.70532 2.39831,-4.37002 2.39831,-7.99383 v -3.22926 c 0,-3.53854 -0.77812,-6.171072 -2.33423,-7.897706 -1.53479,-1.726638 -3.80481,-2.590023 -6.81043,-2.590023 z m -0.0636,1.854667 c 1.24922,0 3.08333,0.07581 4.54029,1.086756 1.06582,0.724761 1.81177,1.737753 2.23811,3.038056 0.42632,1.27899 0.63975,2.85615 0.63975,4.73201 v 2.84582 c 0,1.87585 -0.22415,3.46374 -0.67179,4.76405 -0.42634,1.279 -1.17228,2.28126 -2.23811,3.00602 -1.04451,0.72476 -2.46187,1.08676 -4.25245,1.08676 h -0.2558 c -2.43009,0 -4.21047,-0.70307 -5.34024,-2.10995 -1.12978,-1.42821 -1.69448,-3.63493 -1.69448,-6.61924 v -3.1011 c 0,-2.00376 0.24508,-3.64526 0.73536,-4.92425 0.49028,-1.278989 1.24695,-2.227638 2.27015,-2.845817 1.04451,-0.639495 2.38784,-0.959115 4.02921,-0.959115 z"
           sodipodi:nodetypes="scsscsscsscsssccssccsscssscs" /><path
           id="path14"
           style="font-size:31.9748px;font-family:DaytonaW01-Light;-inkscape-font-specification:'DaytonaW01-Light, Normal';text-align:center;text-anchor:middle;fill:#916f6f;fill-rule:evenodd;stroke-width:1.25615"
           d="m 83.742091,95.721534 c -0.341062,0 -0.565211,0.04289 -0.671793,0.128157 -0.08527,0.08527 -0.127641,0.276729 -0.127641,0.575159 v 11.883 l 0.02791,-0.0207 0.450619,-0.25011 0.451135,-0.2496 0.590662,-0.19275 0.590661,-0.19327 0.906922,-0.0367 0.906921,-0.0367 0.571025,0.12609 0.571541,0.12661 0.539502,0.24288 0.539502,0.24288 0.243396,0.15709 0.243396,0.1571 0.957047,-1.33377 0.957048,-1.33428 -0.150378,-0.339 -0.150896,-0.33952 -0.03462,-0.36948 -0.03462,-0.36949 0.07545,-0.30592 0.07545,-0.30541 0.217558,-0.35399 0.217558,-0.35346 0.319877,-0.21549 0.319877,-0.21549 0.488859,-0.0341 0.489376,-0.0346 0.348299,0.16433 0.348299,0.16381 0.267684,0.3173 0.267684,0.31781 0.110587,0.2806 0.110588,0.2806 0.0036,0.47749 0.0041,0.47801 -0.171565,0.36742 -0.171566,0.36742 -0.224276,0.23461 -0.224792,0.23513 -0.302307,0.14934 -0.302307,0.14986 -0.370004,10e-4 -0.370003,0.002 -0.207739,-0.0656 -0.208256,-0.0651 -0.396358,0.55656 -0.396359,0.55604 -0.555521,0.76946 -0.555522,0.76998 0.425297,0.48472 0.425297,0.48524 0.221175,0.35502 0.221175,0.3545 0.264067,0.61702 0.264066,0.6165 0.143144,0.57206 0.142627,0.57205 0.0031,1.13947 0.0031,1.13946 -0.147278,0.58808 -0.147794,0.58808 -0.2651,0.60668 -0.265617,0.6072 -0.213424,0.34881 -0.213423,0.3483 -0.511597,0.57568 -0.100252,0.11162 h 0.935343 c 2.366128,0 4.125073,-0.55449 5.276164,-1.66295 1.151088,-1.12977 1.726509,-2.74983 1.726509,-4.86017 0,-1.66267 -0.341066,-2.98405 -1.023193,-3.96461 -0.66081,-1.00186 -1.822892,-1.66257 -3.485575,-1.98231 v -0.0641 c 1.129771,-0.34107 1.993162,-0.94866 2.590022,-1.82263 0.618179,-0.87397 0.927592,-1.88645 0.927592,-3.03754 0,-1.36426 -0.234869,-2.483439 -0.703833,-3.357414 -0.468961,-0.895292 -1.204192,-1.555978 -2.206066,-1.982308 -0.980558,-0.426329 -2.281002,-0.639754 -3.901054,-0.639754 z m 0.895553,13.304096 -0.278019,0.0816 -0.277503,0.0822 -0.22996,0.22065 -0.22996,0.22066 -0.113688,0.3266 -0.114205,0.32608 0.04547,0.31367 0.04548,0.31316 0.15968,0.2651 0.159163,0.2651 0.291455,0.15761 0.291972,0.15762 h 0.305925 0.305924 l 0.31936,-0.22118 0.319361,-0.22169 0.129191,-0.31161 0.129191,-0.31109 5.17e-4,-0.2713 0.001,-0.27079 -0.07131,-0.2067 -0.0708,-0.20723 -0.240812,-0.27026 -0.240296,-0.27079 -0.318843,-0.0837 z m 4.940784,4.56768 -0.245463,0.1509 -0.245463,0.15089 -0.163298,0.26045 -0.162781,0.25993 -0.02842,0.42788 -0.02791,0.42737 0.156063,0.30437 0.156579,0.30438 0.227893,0.15399 0.22841,0.15451 0.21084,0.0522 0.211357,0.0522 0.201538,-0.0372 0.201538,-0.0367 0.167948,-0.0935 0.167949,-0.0935 0.150895,-0.15555 0.150378,-0.15503 0.108521,-0.23048 0.109037,-0.22996 -0.02842,-0.42219 -0.02791,-0.42272 -0.164331,-0.2651 -0.163815,-0.2651 -0.273368,-0.14624 -0.272851,-0.14573 h -0.322461 z" /><path
           id="path12"
           style="font-size:31.9748px;font-family:DaytonaW01-Light;-inkscape-font-specification:'DaytonaW01-Light, Normal';text-align:center;text-anchor:middle;fill:#916f6f;fill-rule:evenodd;stroke-width:1.25615"
           d="m 68.585994,95.273771 c -2.835096,0 -5.062741,0.820494 -6.682796,2.461865 -1.620054,1.620054 -2.430342,4.327644 -2.430342,8.121984 v 3.16518 c 0,3.70908 0.810288,6.39522 2.430342,8.05791 1.620055,1.64137 3.826254,2.46186 6.618718,2.46186 h 0.223759 c 2.941678,0 5.201492,-0.85266 6.778914,-2.55798 1.598738,-1.70532 2.397786,-4.37002 2.397786,-7.99383 v -3.22926 c 0,-3.53854 -0.778119,-6.171072 -2.334224,-7.897706 -1.534789,-1.726638 -3.804809,-2.590023 -6.810437,-2.590023 z m -0.06408,1.854667 h 0.255798 c 1.811904,0 3.239983,0.361994 4.284493,1.086756 1.065826,0.724761 1.812293,1.737753 2.238623,3.038056 0.42633,1.27899 0.639238,2.85615 0.639238,4.73201 v 2.84582 c 0,1.87585 -0.22363,3.46374 -0.671277,4.76405 -0.426331,1.279 -1.172798,2.28126 -2.238623,3.00602 -1.044509,0.72476 -2.461866,1.08676 -4.252454,1.08676 h -0.255798 c -2.430083,0 -4.209951,-0.70307 -5.339726,-2.10995 -1.129775,-1.42821 -1.69447,-3.63493 -1.69447,-6.61924 v -3.1011 c 0,-2.00376 0.245076,-3.64526 0.735355,-4.92425 0.490281,-1.278989 1.246954,-2.227638 2.270146,-2.845817 1.044509,-0.639495 2.387323,-0.959115 4.028695,-0.959115 z" /><path
           id="text1"
           style="font-size:31.9748px;font-family:DaytonaW01-Light;-inkscape-font-specification:'DaytonaW01-Light, Normal';text-align:center;text-anchor:middle;fill:#916f6f;fill-rule:evenodd;stroke-width:1.25615"
           d="m 40.703975,95.721289 c -0.213165,0 -0.372974,0.02145 -0.479557,0.06408 -0.08527,0.02132 -0.149603,0.08514 -0.192236,0.191719 -0.02132,0.106583 -0.03152,0.277116 -0.03152,0.511597 v 21.934575 c 0,0.29844 0.03166,0.49041 0.0956,0.57568 0.06395,0.0639 0.213036,0.0961 0.447517,0.0961 h 0.799435 c 0.255794,0 0.415604,-0.0429 0.479557,-0.12816 0.08527,-0.0853 0.128158,-0.26652 0.128158,-0.54364 v -9.04854 h 4.60437 c 0.298431,0 0.543507,0.0638 0.735355,0.19172 0.19185,0.10659 0.362382,0.2664 0.511597,0.47956 l 6.235278,8.5695 c 0.149216,0.21318 0.276857,0.35154 0.38344,0.41548 0.127899,0.0427 0.319877,0.0641 0.575675,0.0641 h 0.767395 c 0.213165,0 0.372975,-0.0214 0.479557,-0.0641 0.106583,-0.064 0.159681,-0.15994 0.159681,-0.28784 0,-0.0853 -0.0531,-0.20219 -0.159681,-0.3514 -0.08527,-0.17053 -0.202701,-0.36251 -0.351916,-0.57568 l -6.266801,-8.60154 c 2.216917,-0.29843 3.794084,-1.01221 4.732011,-2.14199 0.937926,-1.12977 1.407149,-2.64312 1.407149,-4.54029 0,-1.5561 -0.277245,-2.824886 -0.831474,-3.805449 C 54.378336,97.724896 53.494022,96.978945 52.27898,96.488665 51.06394,95.977069 49.475533,95.72127 47.514413,95.72127 Z m 1.246953,1.854667 h 5.467883 c 1.577422,0 2.824247,0.170533 3.740857,0.511597 0.91661,0.341064 1.577294,0.874107 1.982308,1.598869 0.405014,0.703448 0.607715,1.652098 0.607715,2.845818 0,1.19373 -0.224147,2.15259 -0.671794,2.87735 -0.42633,0.72476 -1.097737,1.2578 -2.014347,1.59887 -0.895294,0.34106 -2.067576,0.51159 -3.517098,0.51159 h -5.595524 z" /></g><text
         xml:space="preserve"
         style="font-style:normal;font-variant:normal;font-weight:normal;font-stretch:normal;font-size:44.1681px;font-family:DaytonaW01-Light;-inkscape-font-specification:'DaytonaW01-Light, Normal';font-variant-ligatures:normal;font-variant-caps:normal;font-variant-numeric:normal;font-variant-east-asian:normal;text-align:center;text-anchor:middle;fill:#916f6f;fill-rule:evenodd;stroke-width:1.73516;-inkscape-stroke:none"
         x="125.24646"
         y="157.49936"
         id="text1-6"
         transform="scale(1.0397647,0.96175606)"><tspan
           sodipodi:role="line"
           id="tspan1-6"
           x="125.24646"
           y="157.49936"
           style="font-style:normal;font-variant:normal;font-weight:normal;font-stretch:normal;font-size:44.1681px;font-family:DaytonaW01-Light;-inkscape-font-specification:'DaytonaW01-Light, Normal';font-variant-ligatures:normal;font-variant-caps:normal;font-variant-numeric:normal;font-variant-east-asian:normal;fill:#916f6f;stroke-width:1.73518">CRAFT</tspan></text><rect
         style="fill:#916f6f;fill-rule:evenodd;stroke-width:1.21478;-inkscape-stroke:none"
         id="rect19"
         width="174.46829"
         height="2.7175543"
         x="43.911198"
         y="113.12251"
         ry="1.3587772" /></g></g></svg>
